<svg width="24" height="24" viewBox="0 0 24 24" fill="none" xmlns="http://www.w3.org/2000/svg">
<path d="M8.625 16.9999V18C8.625 18.7956 8.98058 19.5587 9.61351 20.1213C10.2464 20.6839 11.1049 21 12 21C12.8951 21 13.7535 20.6839 14.3865 20.1213C15.0194 19.5587 15.375 18.7956 15.375 18V16.9999M9.75 5.00004C9.75 4.46959 9.98705 3.96088 10.409 3.5858C10.831 3.21072 11.4033 3 12 3C12.5967 3 13.169 3.21072 13.591 3.5858C14.0129 3.96088 14.25 4.46959 14.25 5.00004C15.542 5.54307 16.6433 6.38839 17.4361 7.44538C18.2288 8.50237 18.683 9.73119 18.75 11.0001V14.0002C18.8347 14.6219 19.0824 15.2173 19.4732 15.7383C19.864 16.2594 20.3869 16.6917 21 17.0002H3C3.61306 16.6917 4.13604 16.2594 4.52684 15.7383C4.91764 15.2173 5.16534 14.6219 5.25 14.0002V11.0001C5.31701 9.73119 5.77121 8.50237 6.56394 7.44538C7.35667 6.38839 8.45804 5.54307 9.75 5.00004Z" stroke="#3B73B8" stroke-width="1.5" stroke-linecap="round" stroke-linejoin="round"/>
</svg>
