<svg width="71" height="59" viewBox="0 0 71 59" fill="none" xmlns="http://www.w3.org/2000/svg">
<path d="M64.9354 13.3302L64.8614 12.8332L64.7845 12.851C64.2588 10.3927 63.0478 8.13352 61.2917 6.3348C59.5355 4.53609 57.306 3.27137 54.861 2.68698C52.4161 2.10259 49.8556 2.22241 47.4759 3.03258C45.0962 3.84276 42.9945 5.31017 41.414 7.26503C39.8335 9.21989 38.8388 11.5823 38.545 14.0789C38.2512 16.5755 38.6703 19.1043 39.7538 21.3727C40.8373 23.641 42.541 25.5562 44.6676 26.8967C46.7942 28.2372 49.2569 28.9481 51.7708 28.9473C52.4305 28.9473 53.0636 28.8467 53.6937 28.755C53.4896 29.4413 53.2795 30.1395 52.9423 30.7666C52.605 31.6778 52.0784 32.4677 51.5548 33.2635C51.117 34.1243 50.3448 34.7071 49.7768 35.4438C49.1822 36.1597 48.3716 36.636 47.7297 37.2306C47.0996 37.8518 46.2742 38.1625 45.6174 38.6003C44.9311 38.9938 44.3335 39.4286 43.6945 39.6357L42.1 40.2925L40.6977 40.8753L42.1296 46.6115L43.8957 46.1855C44.4607 46.0435 45.15 45.8778 45.934 45.6796C46.7357 45.5317 47.5906 45.1264 48.5432 44.7566C49.481 44.3336 50.5726 44.0525 51.5844 43.3751C52.6021 42.7301 53.7765 42.1917 54.8119 41.3279C55.8148 40.4374 57.0248 39.6653 57.9182 38.5352C58.8944 37.4761 59.8588 36.3638 60.6073 35.0976C61.4741 33.8906 62.0628 32.5653 62.6841 31.2548C63.2461 29.9442 63.6988 28.6041 64.0686 27.3024C64.7697 24.6932 65.0833 22.2141 65.2046 20.093C65.3051 17.9689 65.246 16.2028 65.1217 14.9248C65.0802 14.3911 65.018 13.8591 64.9354 13.3302ZM32.3937 13.3302L32.3197 12.8332L32.2428 12.851C31.7171 10.3927 30.5062 8.13352 28.75 6.3348C26.9939 4.53609 24.7643 3.27137 22.3194 2.68698C19.8744 2.10259 17.3139 2.22241 14.9342 3.03258C12.5545 3.84276 10.4528 5.31017 8.87232 7.26503C7.29183 9.21989 6.29715 11.5823 6.00335 14.0789C5.70955 16.5755 6.12865 19.1043 7.21216 21.3727C8.29566 23.641 9.99929 25.5562 12.1259 26.8967C14.2525 28.2372 16.7153 28.9481 19.2291 28.9473C19.8888 28.9473 20.5219 28.8467 21.152 28.755C20.9479 29.4413 20.7378 30.1395 20.4006 30.7666C20.0633 31.6778 19.5368 32.4677 19.0131 33.2635C18.5753 34.1243 17.8032 34.7071 17.2352 35.4438C16.6406 36.1597 15.83 36.636 15.188 37.2306C14.5579 37.8518 13.7325 38.1625 13.0758 38.6003C12.3894 38.9938 11.7918 39.4286 11.1528 39.6357L9.5583 40.2925C8.66784 40.6563 8.15901 40.8694 8.15901 40.8694L9.59085 46.6056L11.357 46.1796C11.922 46.0376 12.6113 45.8719 13.3953 45.6737C14.197 45.5258 15.0519 45.1205 16.0045 44.7507C16.9423 44.3276 18.0339 44.0466 19.0457 43.3691C20.0633 42.7242 21.2378 42.1858 22.2732 41.322C23.2761 40.4315 24.4861 39.6594 25.3795 38.5293C26.3557 37.4702 27.3201 36.3579 28.0686 35.0917C28.9354 33.8847 29.5241 32.5594 30.1453 31.2488C30.7074 29.9383 31.1601 28.5982 31.5298 27.2965C32.231 24.6873 32.5446 22.2082 32.6658 20.0871C32.7664 17.963 32.7073 16.1969 32.583 14.9189C32.5388 14.3872 32.4757 13.8573 32.3937 13.3302Z" fill="#3B73B8" fill-opacity="0.1"/>
</svg>
