<svg width="143" height="60" viewBox="0 0 143 60" fill="none" xmlns="http://www.w3.org/2000/svg">
<path d="M52.3952 29.9727C52.3952 43.258 41.9266 54.0591 29.0504 54.0591C16.1741 54.0591 5.70557 43.258 5.70557 29.9727C18.8436 29.9727 28.1082 29.9727 52.3952 29.9727Z" fill="url(#paint0_linear_8057_70064)"/>
<path d="M65.6378 5.88672C58.2051 5.88672 51.61 9.45107 47.3179 15.0136C43.0258 9.45107 36.4306 5.88672 28.9979 5.88672C25.805 5.88672 22.8215 6.53478 20.0474 7.7229C21.513 7.39887 23.0309 7.23685 24.6012 7.23685C35.5408 7.23685 44.7531 15.0676 47.2655 25.5447C49.778 15.0676 58.9903 7.23685 69.9299 7.23685C71.5001 7.23685 73.0181 7.39887 74.4837 7.7229C71.8665 6.53478 68.8307 5.88672 65.6378 5.88672Z" fill="#223C83"/>
<path d="M73.3322 18.4707C77.3102 18.4707 79.9797 19.8208 81.707 21.549C84.3765 24.1413 84.7429 27.4896 84.7429 30.1899C84.7429 33.0522 84.2718 36.3465 81.6546 38.9387C78.9328 41.585 75.5306 41.909 73.2798 41.909H66.3706V18.4707H73.3322ZM71.5002 37.9126H73.3322C74.3267 37.9126 76.5774 37.8046 77.9907 36.1845C79.2469 34.7803 79.4039 32.6741 79.4039 31.108V29.2178C79.4039 27.5436 79.2469 25.5454 77.9907 24.1413C76.6821 22.6831 74.7454 22.4131 73.3322 22.4131H71.5002V37.9126Z" fill="#223C83"/>
<path d="M103.063 22.4671H94.8975V27.5976H103.063V31.648H94.8975V37.9127H103.063V41.9631H89.8203V18.4707H103.063V22.4671Z" fill="#223C83"/>
<path d="M121.645 22.4671H113.479V27.9216H121.592V31.9721H113.479V41.909H108.402V18.4707H121.592V22.4671H121.645Z" fill="#223C83"/>
<path d="M143 41.9084H137.452L135.306 36.2918H128.397L126.355 41.9084H121.645L130.438 18.416H134.207L143 41.9084ZM134.05 32.2414L133.265 30.0272C132.898 28.8931 132.427 27.813 131.904 25.5447H131.694C131.38 26.8949 130.857 28.7851 130.281 30.3512L129.653 32.2414H134.05Z" fill="#223C83"/>
<path d="M87.5693 49.7396C88.4067 49.7396 89.5583 49.7396 90.3958 50.4956C90.9192 50.9817 91.2856 51.6837 91.2856 52.6018C91.2856 53.1419 91.1286 53.844 90.7622 54.276C90.3958 54.708 89.8723 54.9781 89.3489 55.0861V55.1401C90.0294 55.3021 90.3434 55.7882 90.5528 56.2742L92.0184 59.7306H89.6106L88.3544 56.5982C88.2497 56.2742 88.0927 56.0042 87.9357 55.7882C87.831 55.6801 87.5693 55.5181 87.0982 55.5181H86.313V59.7306H84.167V49.6855H87.5693V49.7396ZM86.313 53.844H87.7263C88.0927 53.844 88.4591 53.844 88.7731 53.4659C89.0349 53.1959 89.0349 52.8719 89.0349 52.6558C89.0349 52.3858 88.9825 52.1158 88.7208 51.8458C88.4067 51.5217 87.988 51.4677 87.6739 51.4677H86.2607V53.844H86.313Z" fill="#223C83"/>
<path d="M107.826 50.8723C108.82 52.0064 108.925 53.6266 108.925 54.7607C108.925 55.8948 108.82 57.461 107.826 58.6491C107.302 59.2431 106.36 59.9452 104.738 59.9452C103.115 59.9452 102.173 59.1891 101.649 58.6491C100.655 57.515 100.55 55.9488 100.55 54.7607C100.55 53.6266 100.655 52.0604 101.649 50.8723C102.173 50.2782 103.115 49.5762 104.738 49.5762C106.36 49.5762 107.302 50.2782 107.826 50.8723ZM106.674 54.2746C106.674 53.6806 106.674 52.4925 106.099 51.8444C105.942 51.6284 105.523 51.3043 104.738 51.3043C104.057 51.3043 103.639 51.5744 103.377 51.8444C103.01 52.2764 102.801 53.0325 102.801 54.2746V55.2467C102.801 56.4889 102.958 57.2449 103.377 57.677C103.639 57.947 104.057 58.217 104.738 58.217C105.418 58.217 105.837 57.947 106.099 57.677C106.465 57.2449 106.674 56.4889 106.674 55.2467V54.2746Z" fill="#223C83"/>
<path d="M125.989 55.9489C125.989 57.137 125.57 58.2171 124.942 58.9192C124.314 59.5673 123.267 59.9993 122.116 59.9993C120.912 59.9993 119.865 59.5673 119.289 58.9192C118.661 58.2711 118.242 57.191 118.242 55.9489V49.7383H120.388V56.0029C120.388 56.597 120.388 57.137 120.702 57.6231C121.069 58.1631 121.644 58.2711 122.116 58.2711C122.587 58.2711 123.162 58.1631 123.529 57.6231C123.895 57.137 123.843 56.597 123.843 56.0029V49.7383H125.989V55.9489Z" fill="#223C83"/>
<path d="M139.231 49.7383C140.069 49.7383 141.063 49.7923 141.848 50.3863C142.529 50.8724 142.948 51.6285 142.948 52.6546C142.948 53.6267 142.581 54.3287 142.163 54.8148C141.796 55.1928 140.959 55.7329 139.441 55.7329H137.975V59.7833H135.829V49.7383H139.231ZM137.975 54.0047H139.231C139.388 54.0047 140.016 54.0047 140.383 53.6807C140.592 53.4647 140.749 53.1406 140.749 52.8166C140.749 52.3305 140.592 52.0605 140.383 51.8445C140.069 51.5205 139.598 51.4665 139.284 51.4665H138.027V54.0047H137.975Z" fill="#223C83"/>
<path d="M70.6626 54.5453V56.2735H72.1805V58.0017C72.1282 58.0557 71.6571 58.2717 71.029 58.2717C70.4009 58.2717 69.7728 58.0557 69.4064 57.6777C68.7259 56.9756 68.7259 55.5715 68.7259 55.1934V54.0593C68.7259 53.3572 68.7783 52.4391 69.354 51.8451C69.7728 51.467 70.1915 51.359 70.6103 51.359C70.9767 51.359 71.4477 51.359 71.8141 51.6291C71.9712 51.7371 72.1282 51.9531 72.1282 52.3311V52.8172H74.2742V51.9531C74.2742 51.305 74.0649 50.657 73.2797 50.1709C72.5469 49.7389 71.6048 49.6309 70.872 49.6309C69.7728 49.6309 68.5166 49.7929 67.522 50.981C66.5799 52.1151 66.4229 53.6813 66.4229 54.8154C66.4229 55.6255 66.5275 57.0836 67.2603 58.2177C67.7314 58.9198 68.7783 59.9999 70.872 59.9999C71.7618 59.9999 72.4946 59.8379 73.175 59.5679C73.6985 59.3518 74.1696 59.0818 74.3266 59.0278V54.5994H70.6626V54.5453Z" fill="#223C83"/>
<path d="M53.1278 19.3339C54.4887 22.5743 55.2215 26.1926 55.2215 29.973C55.2215 44.8785 43.4444 57.0297 28.9978 57.0297C14.5512 57.0297 2.8265 44.8785 2.8265 29.973C2.8265 15.0675 14.6036 2.91629 29.0501 2.91629C36.1687 2.91629 42.6069 5.88659 47.3701 10.6391C48.0505 9.93699 48.7833 9.28893 49.5161 8.69487C44.2819 3.34833 37.0586 0 29.0501 0C13.0333 0 0 13.4473 0 29.973C0 46.4986 13.0333 59.946 29.0501 59.946C45.067 59.946 58.1003 46.4986 58.1003 29.973C58.1003 25.2745 57.0534 20.7921 55.1168 16.7957C54.4363 17.6058 53.7559 18.4158 53.1278 19.3339Z" fill="url(#paint1_linear_8057_70064)"/>
<defs>
<linearGradient id="paint0_linear_8057_70064" x1="29.0459" y1="29.4817" x2="29.0459" y2="54.2332" gradientUnits="userSpaceOnUse">
<stop stop-color="#223C83"/>
<stop offset="1" stop-color="#006EB7"/>
</linearGradient>
<linearGradient id="paint1_linear_8057_70064" x1="29.0454" y1="59.9511" x2="29.0454" y2="-0.014472" gradientUnits="userSpaceOnUse">
<stop stop-color="#223C83"/>
<stop offset="0.5" stop-color="#223C83"/>
<stop offset="0.5726" stop-color="#006EB7"/>
<stop offset="0.75" stop-color="#7CCBE2"/>
<stop offset="1" stop-color="#7CCBE2"/>
</linearGradient>
</defs>
</svg>
