<?xml version="1.0" standalone="no"?>
<!DOCTYPE svg PUBLIC "-//W3C//DTD SVG 20010904//EN"
 "http://www.w3.org/TR/2001/REC-SVG-20010904/DTD/svg10.dtd">
<svg version="1.0" xmlns="http://www.w3.org/2000/svg"
 width="96.000000pt" height="96.000000pt" viewBox="0 0 96.000000 96.000000"
 preserveAspectRatio="xMidYMid meet">
<metadata>
Created by potrace 1.14, written by Peter Selinger 2001-2017
</metadata>
<g transform="translate(0.000000,96.000000) scale(0.100000,-0.100000)"
fill="#000000" stroke="none">
<path d="M305 826 c-157 -49 -260 -181 -272 -352 -12 -163 81 -317 233 -386
74 -34 209 -32 284 3 85 40 144 99 187 187 36 72 38 80 37 171 -1 67 -6 108
-18 135 -16 34 -18 37 -30 21 -10 -15 -10 -25 2 -59 21 -63 11 -183 -22 -251
-33 -65 -102 -136 -165 -167 -66 -33 -206 -33 -272 0 -122 60 -199 179 -201
310 -1 72 8 115 39 175 93 185 326 243 493 123 37 -26 48 -30 58 -20 9 10 3
19 -27 44 -65 50 -127 73 -211 76 -41 1 -93 -3 -115 -10z"/>
<path d="M368 760 c-65 -8 -66 -15 -3 -17 100 -3 192 -63 241 -157 16 -31 31
-56 34 -56 4 0 11 15 18 34 30 83 148 172 235 178 51 3 58 18 10 19 -97 3
-171 -24 -230 -81 l-32 -31 -33 31 c-62 60 -154 91 -240 80z"/>
<path d="M105 423 c18 -102 37 -143 92 -198 74 -75 194 -105 293 -76 109 33
200 147 212 266 l3 30 -303 3 -302 2 5 -27z"/>
</g>
</svg>
