<svg width="28" height="28" viewBox="0 0 28 28" xmlns="http://www.w3.org/2000/svg">
<path fill-rule="evenodd" clip-rule="evenodd" d="M18.5202 14.5202C18.7155 14.3249 18.7155 14.0083 18.5202 13.8131L14.5202 9.81307C14.325 9.61781 14.0084 9.61781 13.8131 9.81307L9.81313 13.8131C9.61787 14.0083 9.61787 14.3249 9.81313 14.5202C10.0084 14.7154 10.325 14.7154 10.5202 14.5202L13.6667 11.3737L13.6667 18.1666C13.6667 18.4428 13.8905 18.6666 14.1667 18.6666C14.4428 18.6666 14.6667 18.4428 14.6667 18.1666L14.6667 11.3737L17.8131 14.5202C18.0084 14.7154 18.325 14.7154 18.5202 14.5202Z" stroke="none"/>
<rect x="0.5" y="0.5" width="27" height="27" rx="13.5" fill="none"/>
</svg>
