<svg width="18" height="18" viewBox="0 0 18 18" stroke="none" xmlns="http://www.w3.org/2000/svg">
<path d="M16.7885 5.25291H5.09486L4.75765 2.6754C4.757 2.67051 4.75629 2.66562 4.75549 2.66076C4.64543 1.98815 4.0709 1.5 3.38937 1.5H1.96142C1.70659 1.5 1.5 1.70659 1.5 1.96142C1.5 2.21625 1.70659 2.42285 1.96142 2.42285H3.38937C3.61449 2.42285 3.80459 2.58262 3.84372 2.80367C3.85963 2.92531 5.0457 11.991 5.08732 12.3091C5.08796 12.314 5.08867 12.3189 5.08947 12.3238C5.11236 12.4638 5.15626 12.5956 5.21707 12.717C4.68268 12.9089 4.2993 13.4203 4.2993 14.0199C4.2993 14.7832 4.92028 15.4042 5.68357 15.4042H6.22436C6.17314 15.5486 6.14499 15.7039 6.14499 15.8656C6.14499 16.6289 6.76598 17.2499 7.52926 17.2499C8.29255 17.2499 8.91353 16.6289 8.91353 15.8656C8.91353 15.7039 8.88538 15.5486 8.83417 15.4042H11.7922C11.741 15.5486 11.7129 15.7039 11.7129 15.8656C11.7129 16.6289 12.3338 17.2499 13.0971 17.2499C13.8604 17.2499 14.4814 16.6289 14.4814 15.8656C14.4814 15.7039 14.4533 15.5486 14.402 15.4042H15.8656C16.1205 15.4042 16.3271 15.1976 16.3271 14.9428C16.3271 14.688 16.1205 14.4814 15.8656 14.4814H5.68357C5.42914 14.4814 5.22215 14.2744 5.22215 14.0199C5.22215 13.7655 5.42914 13.5585 5.68357 13.5585C5.69754 13.5585 5.71147 13.5579 5.72534 13.5566C7.07408 13.434 13.7152 12.8326 15.1978 12.6983C15.8245 12.6413 16.3345 12.168 16.4379 11.5473C16.4386 11.5433 16.4392 11.5393 16.4397 11.5354L17.2454 5.77828C17.2843 5.50069 17.0684 5.25291 16.7885 5.25291ZM13.0971 15.4042C13.3515 15.4042 13.5585 15.6112 13.5585 15.8656C13.5585 16.1201 13.3515 16.3271 13.0971 16.3271C12.8427 16.3271 12.6357 16.1201 12.6357 15.8656C12.6357 15.6112 12.8427 15.4042 13.0971 15.4042ZM7.52926 15.4042C7.78369 15.4042 7.99068 15.6112 7.99068 15.8656C7.99068 16.1201 7.78369 16.3271 7.52926 16.3271C7.27483 16.3271 7.06784 16.1201 7.06784 15.8656C7.06784 15.6112 7.27483 15.4042 7.52926 15.4042ZM6.49734 12.5598C6.25946 12.5814 6.0428 12.4154 6.00124 12.1808L5.45707 8.02145H7.10568L7.48672 12.4698L6.49734 12.5598ZM10.2978 12.2155C10.1258 12.2311 8.40578 12.3863 8.40578 12.3863L8.03191 8.02145H10.2978V12.2155ZM13.1319 11.9588L11.2206 12.132V8.02145H13.5119L13.1319 11.9588ZM15.5268 11.4005C15.4905 11.605 15.3215 11.7604 15.1144 11.7792L14.0672 11.8741L14.439 8.02148H15.9997L15.5268 11.4005ZM16.1288 7.0986C15.6835 7.0986 5.71455 7.0986 5.33633 7.0986L5.21559 6.17575H16.258L16.1288 7.0986Z"/>
</svg>
