<svg width="18" height="18" viewBox="0 0 18 18" stroke="none" xmlns="http://www.w3.org/2000/svg">
<path fill-rule="evenodd" clip-rule="evenodd" d="M8.3125 3.375C5.58559 3.375 3.375 5.58559 3.375 8.3125C3.375 11.0394 5.58559 13.25 8.3125 13.25C11.0394 13.25 13.25 11.0394 13.25 8.3125C13.25 5.58559 11.0394 3.375 8.3125 3.375ZM2.25 8.3125C2.25 4.96427 4.96427 2.25 8.3125 2.25C11.6607 2.25 14.375 4.96427 14.375 8.3125C14.375 11.6607 11.6607 14.375 8.3125 14.375C4.96427 14.375 2.25 11.6607 2.25 8.3125Z" fill-opacity="0.8"/>
<path fill-rule="evenodd" clip-rule="evenodd" d="M11.799 11.7995C12.0187 11.5798 12.3749 11.5798 12.5945 11.7995L15.5851 14.7901C15.8048 15.0098 15.8048 15.366 15.5851 15.5856C15.3655 15.8053 15.0093 15.8053 14.7897 15.5856L11.799 12.595C11.5794 12.3753 11.5794 12.0192 11.799 11.7995Z" fill-opacity="0.8"/>
</svg>
