<svg width="18" height="19" viewBox="0 0 18 19" xmlns="http://www.w3.org/2000/svg">
<path fill-rule="evenodd" clip-rule="evenodd" d="M3.375 10.7502C3.68566 10.7502 3.9375 11.0021 3.9375 11.3127V13.8127C3.9375 13.9951 4.00993 14.1699 4.13886 14.2989C4.2678 14.4278 4.44266 14.5002 4.625 14.5002H13.375C13.5573 14.5002 13.7322 14.4278 13.8611 14.2989C13.9901 14.1699 14.0625 13.9951 14.0625 13.8127V11.3127C14.0625 11.0021 14.3143 10.7502 14.625 10.7502C14.9357 10.7502 15.1875 11.0021 15.1875 11.3127V13.8127C15.1875 14.2934 14.9965 14.7545 14.6566 15.0944C14.3167 15.4343 13.8557 15.6252 13.375 15.6252H4.625C4.14429 15.6252 3.68328 15.4343 3.34337 15.0944C3.00346 14.7545 2.8125 14.2934 2.8125 13.8127V11.3127C2.8125 11.0021 3.06434 10.7502 3.375 10.7502Z"/>
<path fill-rule="evenodd" clip-rule="evenodd" d="M5.47725 7.79C5.69692 7.57033 6.05308 7.57033 6.27275 7.79L9 10.5172L11.7273 7.79C11.9469 7.57033 12.3031 7.57033 12.5227 7.79C12.7424 8.00967 12.7424 8.36582 12.5227 8.58549L9.39775 11.7105C9.17808 11.9302 8.82192 11.9302 8.60225 11.7105L5.47725 8.58549C5.25758 8.36582 5.25758 8.00967 5.47725 7.79Z"/>
<path fill-rule="evenodd" clip-rule="evenodd" d="M9 3.25024C9.31066 3.25024 9.5625 3.50208 9.5625 3.81274V11.3127C9.5625 11.6234 9.31066 11.8752 9 11.8752C8.68934 11.8752 8.4375 11.6234 8.4375 11.3127V3.81274C8.4375 3.50208 8.68934 3.25024 9 3.25024Z"/>
</svg>
