<svg width="17" height="17" viewBox="0 0 17 17" xmlns="http://www.w3.org/2000/svg">
<path fill-rule="evenodd" clip-rule="evenodd" d="M6.80933 13.6926L6.83265 13.7384L7.74211 16.5366L13.9685 11.4678L13.9918 11.4449H17L14.0151 4.03667L14.9479 1.23852L6.85744 1.74301L8.83845 3.1642L13.9221 4.03575L13.9921 4.05868H14.0154L13.2459 6.32931L13.8988 10.7559L13.9921 11.4439H13.9688H12.4297L11.5435 11.421L6.83296 13.7146V13.6687L6.08674 11.421L2.42556 7.72838L2.51884 7.65957L4.40772 6.30637L6.24997 2.86603L6.85628 1.76512V1.74309L6.85597 1.74311L4.43073 0L2.42524 7.70636L0 9.44947L6.80933 13.6926Z" />
</svg>
