<svg width="24" height="24" viewBox="0 0 24 24" fill="none" xmlns="http://www.w3.org/2000/svg">
<path fill-rule="evenodd" clip-rule="evenodd" d="M12.3333 4.41602C8.14517 4.41602 4.75 7.81119 4.75 11.9993C4.75 16.1875 8.14517 19.5827 12.3333 19.5827C16.5215 19.5827 19.9167 16.1875 19.9167 11.9993C19.9167 7.81119 16.5215 4.41602 12.3333 4.41602ZM3.25 11.9993C3.25 6.98276 7.31675 2.91602 12.3333 2.91602C17.3499 2.91602 21.4167 6.98276 21.4167 11.9993C21.4167 17.0159 17.3499 21.0827 12.3333 21.0827C7.31675 21.0827 3.25 17.0159 3.25 11.9993Z" fill="#FF1212"/>
<path fill-rule="evenodd" clip-rule="evenodd" d="M12 7.91602C12.4142 7.91602 12.75 8.2518 12.75 8.66602V11.9993C12.75 12.4136 12.4142 12.7493 12 12.7493C11.5858 12.7493 11.25 12.4136 11.25 11.9993V8.66602C11.25 8.2518 11.5858 7.91602 12 7.91602Z" fill="#FF1212"/>
<path fill-rule="evenodd" clip-rule="evenodd" d="M11.25 15.334C11.25 14.9198 11.5858 14.584 12 14.584H12.01C12.4242 14.584 12.76 14.9198 12.76 15.334C12.76 15.7482 12.4242 16.084 12.01 16.084H12C11.5858 16.084 11.25 15.7482 11.25 15.334Z" fill="#FF1212"/>
</svg>
